<?xml version="1.0" standalone="no"?><!DOCTYPE svg PUBLIC "-//W3C//DTD SVG 1.1//EN" "http://www.w3.org/Graphics/SVG/1.1/DTD/svg11.dtd"><svg t="1562032390669" class="icon" viewBox="0 0 1024 1024" version="1.1" xmlns="http://www.w3.org/2000/svg" p-id="1103" xmlns:xlink="http://www.w3.org/1999/xlink" width="200" height="200"><defs><style type="text/css"></style></defs><path d="M706.7 259.9c0 108.3-87.8 226.6-196 226.6s-196-118.3-196-226.6 87.8-196 196-196 196 87.8 196 196zM685.9 513L568.6 840.8H454.8L337.4 513C185.1 524.7 63.7 670.4 63.7 847.2v48.7c0 35.4 25.1 64 56 64h784c30.9 0 56-28.7 56-64v-48.7c0-176.8-121.5-322.4-273.8-334.2z" p-id="1104"></path><path d="M539 577.5h1.9l8.6-40.3h-68l7.4 40.3h1.9l-21.5 171.4 42.7 49.7 49.8-49.4z" fill="#231815" p-id="1105"></path></svg>