<?xml version="1.0" standalone="no"?><!DOCTYPE svg PUBLIC "-//W3C//DTD SVG 1.1//EN" "http://www.w3.org/Graphics/SVG/1.1/DTD/svg11.dtd"><svg t="1561560626676" class="icon" viewBox="0 0 1024 1024" version="1.1" xmlns="http://www.w3.org/2000/svg" p-id="1131" xmlns:xlink="http://www.w3.org/1999/xlink" width="200" height="200"><defs><style type="text/css"></style></defs><path d="M960 146.286v91.428C960 318.286 759.334 384 512 384S64 318.286 64 237.714V146.286C64 65.714 264.666 0 512 0s448 65.714 448 146.286zM960 352v205.714C960 638.286 759.334 704 512 704S64 638.286 64 557.714V352c96.25 66.286 272.416 97.144 448 97.144S863.748 418.286 960 352z m0 320v205.714C960 958.286 759.334 1024 512 1024S64 958.286 64 877.714V672c96.25 66.286 272.416 97.144 448 97.144S863.748 738.286 960 672z" fill="" p-id="1132"></path></svg>